<svg xmlns="http://www.w3.org/2000/svg" width="200" height="200" viewBox="0 0 200.88113 201.18573"><path fill="#c60c30" d="M81.054501 200.02596c-17.57047-3.63846-33.96578-11.7548-46.83686-23.18614C1.174459 147.49279-9.03768 101.39038 8.418307 60.36942c4.286728-10.07366 11.255805-20.29695 19.890694-29.17866l7.61267-7.83027.53693 45.83027c.51393 43.86776.62975 46.07758 2.70484 51.60557 4.15136 11.05915 8.6019 18.10034 16.26354 25.73051 19.79124 19.70997 48.82118 24.629 73.49912 12.45419 23.1956-11.4435 37.81893-36.32611 36.1196-61.46-1.14146-16.88261-6.81905-29.26246-19.07714-41.59721-9.26896-9.32693-20.17418-15.41929-32.04688-17.90344-12.07962-2.52744-11.5-2.89677-11.5 7.3278v8.82715l6.62234 1.22021c25.64682 4.72561 42.60888 29.91001 37.26307 55.32627-1.70737 8.1176-5.51565 15.28583-11.62893 21.88891-9.2904 10.03474-22.36114 14.83118-33.77414 14.80915-18.87159-.0364-34.6297-10.76021-42.26723-26.61851 0 0-2.00072-4.53281-2.64368-7.3339-3.78112-16.47262-1.36425-51.14861-1.36425-51.14861l-.29281-50.70218 2.99315-1.54782c1.64624-.8513 3.22509-1.54782 3.50856-1.54782.28348 0 .64332 23.2875.79966 51.75 0 0-3.63474 37.31048.85696 51.60841.64807 2.06292 1.87838 5.59129 1.87838 5.59129 3.93751 8.02193 10.24821 15.07824 18.44782 18.96221 6.22431 2.94831 9.35814 4.28257 18.56665 4.28257 6.0165 0 11.34645-1.89912 17.47943-4.71979 7.22973-3.32509 15.52319-12.14094 18.58795-20.19011 8.44391-22.17682-3.31362-46.03621-25.96443-52.68923-9.25719-2.71904-9.0685-2.86879-9.0685 7.19725v8.79259l4.44367 1.1885c16.01729 4.28397 20.90468 25.75294 8.33065 36.78433-4.44255 3.89751-8.44566 5.62034-15.4483 5.62034-7.48261 0-14.66512-4.52898-18.35759-11.47551-2.21805-4.17274-2.4053-8.13076-2.4053-9.94354 0-16.74472-.36271-46.85969-.36271-46.85969l-.29958-51.65792 2.29958-.57115c1.26477-.31414 6.37663-1.09143 11.3597-1.72733 16.89981-2.15661 41.90208 3.374 58.69901 12.98447 22.90004 13.1024 40.22757 35.61042 47.4421 61.6261 2.48162 8.94876 2.75823 11.55076 2.75823 25.94621 0 14.33118-.28286 17.01927-2.71196 25.77235-9.81247 35.35858-34.77307 60.63503-70.46342 71.35506-7.51128 2.25611-11.03 2.68631-24.28408 2.96899-10.69597.22812-17.6284-.11017-22.36718-1.09147z"/></svg>
